<svg xmlns="http://www.w3.org/2000/svg" viewBox="0 0 1000 500" fill="none">
  <rect width="1000" height="500" rx="24" fill="#eaf6ff"/>
  <g fill="#b8d9ee" stroke="#8eb8d3" stroke-width="3">
    <path d="M80 230l35-55 68-12 48 20 36 48-14 50-52 18-46-20-40-6-35-43z"/>
    <path d="M262 164l90-46 82 12 70 58-14 40-64 24-74-18-58-30-32-24z"/>
    <path d="M478 132l72-44 96 6 88 50 20 48-42 44-90 10-88-36-54-46z"/>
    <path d="M398 274l68-16 56 30 36 64-18 58-56 28-64-34-34-64z"/>
    <path d="M610 272l70-12 90 18 54 46-16 58-68 26-86-18-50-48z"/>
    <path d="M812 318l62-24 62 24 18 54-42 50-74-10-40-48z"/>
  </g>
  <path d="M60 426h880" stroke="#9fc8e1" stroke-width="2" stroke-dasharray="8 8"/>
</svg>
